<svg width="34" height="32" viewBox="0 0 34 32" fill="none" xmlns="http://www.w3.org/2000/svg">
<path d="M26.0208 10.3496V6.60661C26.5789 6.37558 27.0515 6.00876 27.3835 5.54887C27.7154 5.08898 27.8931 4.55495 27.8959 4.00901V3.92164C27.8935 3.15869 27.5506 2.42757 26.9418 1.88807C26.3331 1.34858 25.5082 1.04459 24.6474 1.04254H24.5488C23.6879 1.04459 22.863 1.34858 22.2543 1.88807C21.6456 2.42757 21.3026 3.15869 21.3003 3.92164V4.00901C21.303 4.55495 21.4807 5.08898 21.8127 5.54887C22.1447 6.00876 22.6172 6.37558 23.1754 6.60661V10.3496C21.5707 10.5671 20.0594 11.1565 18.7944 12.0581L7.19794 4.06143C7.28048 3.79763 7.32465 3.52557 7.32937 3.25186C7.33024 2.60947 7.11615 1.98128 6.71419 1.44673C6.31223 0.912174 5.74045 0.495267 5.07115 0.248727C4.40184 0.00218587 3.66509 -0.0629153 2.95404 0.0616553C2.24299 0.186226 1.58959 0.494874 1.07646 0.948568C0.563334 1.40226 0.213528 1.98063 0.0712757 2.61052C-0.0709768 3.24042 0.000712014 3.89355 0.277282 4.48734C0.553853 5.08112 1.02288 5.58888 1.62505 5.94641C2.22722 6.30394 2.9355 6.49518 3.6603 6.49595C4.29695 6.49385 4.92174 6.34319 5.47184 6.05914L16.8733 13.9257C15.8464 15.2989 15.3106 16.9146 15.336 18.5619C15.3614 20.2091 15.9468 21.8113 17.0157 23.1591L13.546 26.2343C13.2674 26.1557 12.9774 26.1138 12.6851 26.11C12.0894 26.11 11.5071 26.2666 11.0118 26.5599C10.5165 26.8532 10.1304 27.2701 9.90246 27.7579C9.67449 28.2457 9.61485 28.7824 9.73107 29.3002C9.84728 29.818 10.1341 30.2937 10.5554 30.667C10.9766 31.0403 11.5133 31.2946 12.0975 31.3976C12.6818 31.5006 13.2874 31.4477 13.8377 31.2457C14.3881 31.0436 14.8585 30.7015 15.1894 30.2625C15.5204 29.8235 15.697 29.3074 15.697 28.7794C15.693 28.5204 15.6458 28.2633 15.5568 28.0165L18.9893 24.9743C20.1098 25.7328 21.411 26.2544 22.7936 26.4993C24.1762 26.7441 25.6037 26.7058 26.967 26.3871C28.3303 26.0685 29.5935 25.478 30.6601 24.6607C31.7266 23.8434 32.5684 22.8209 33.1211 21.6713C33.6738 20.5217 33.9229 19.2754 33.8493 18.0275C33.7757 16.7796 33.3813 15.5631 32.6963 14.4709C32.0113 13.3786 31.0538 12.4395 29.8969 11.7253C28.74 11.0111 27.4142 10.5405 26.0208 10.3496V10.3496ZM24.5992 22.6621C23.6599 22.6621 22.7417 22.4152 21.9608 21.9527C21.1798 21.4902 20.5711 20.8329 20.2117 20.0638C19.8522 19.2947 19.7582 18.4484 19.9414 17.632C20.1247 16.8155 20.577 16.0655 21.2411 15.4769C21.9053 14.8883 22.7515 14.4874 23.6727 14.325C24.5939 14.1626 25.5488 14.2459 26.4165 14.5645C27.2843 14.8831 28.026 15.4225 28.5478 16.1147C29.0696 16.8069 29.3482 17.6206 29.3482 18.4531C29.3482 19.5694 28.8478 20.6399 27.9572 21.4293C27.0666 22.2186 25.8587 22.6621 24.5992 22.6621" fill="#FF7A59"/>
</svg>
