<svg width="66" height="14" viewBox="0 0 66 14" fill="none" xmlns="http://www.w3.org/2000/svg">
<path fill-rule="evenodd" clip-rule="evenodd" d="M59.268 5.89719C52.088 10.5876 41.681 13.0902 32.7208 13.0902C20.1572 13.0902 8.84665 8.97172 0.289809 2.12195C-0.382475 1.58331 0.219889 0.849234 1.02663 1.2687C10.2611 6.03066 21.6792 8.89545 33.4738 8.89545C41.4283 8.89545 50.1787 7.43683 58.2246 4.40997C59.4401 3.95236 60.4566 5.11545 59.268 5.89719Z" fill="#FF9900"/>
<path fill-rule="evenodd" clip-rule="evenodd" d="M62.253 2.87036C61.3387 1.83122 56.1864 2.37939 53.8737 2.62249C53.1692 2.69876 53.0616 2.15535 53.6962 1.76448C57.7998 -0.795247 64.5334 -0.0564042 65.3187 0.801603C66.1039 1.66438 65.1143 7.64661 61.2581 10.5019C60.6665 10.9404 60.1017 10.7068 60.3653 10.1253C61.2312 8.20908 63.1727 3.91427 62.253 2.87036Z" fill="#FF9900"/>
</svg>
